<svg id="Cardstack_Logo" data-name="Cardstack Logo" xmlns="http://www.w3.org/2000/svg" width="24.108" height="26.11" viewBox="0 0 24.108 26.11">
  <path id="Path_1" data-name="Path 1" d="M77.854,333.46l5.266-2.681-12.049-6.135-5.233,2.664Z" transform="translate(-65.799 -307.35)" fill="#00ebe5"/>
  <path id="Path_2" data-name="Path 2" d="M84.594,306.515l5.247-2.671-18.835-9.592-5.247,2.671Z" transform="translate(-65.738 -283.868)" fill="#00ebe5"/>
  <path id="Path_3" data-name="Path 3" d="M131.95,299.6l5.251-2.674-5.247-2.671-5.251,2.674Z" transform="translate(-113.114 -283.868)" fill="#00ebe5"/>
  <path id="Path_4" data-name="Path 4" d="M70.914,263.823l-5.25,2.673,12.054,6.138,5.251-2.674Z" transform="translate(-65.664 -260.358)" fill="#37eb77"/>
  <path id="Path_5" data-name="Path 5" d="M131.955,269.177l5.268-2.681-5.25-2.673L126.7,266.5Z" transform="translate(-113.115 -260.358)" fill="#37eb77"/>
  <path id="Path_6" data-name="Path 6" d="M101.412,248.583l-5.268,2.683,5.268,2.681,5.268-2.681Z" transform="translate(-89.358 -248.583)" fill="#37eb77"/>
</svg>
