<svg xmlns="http://www.w3.org/2000/svg" width="20.3" height="20.299" viewBox="0 0 20.3 20.299">
  <g id="icon_Face_ID" data-name="icon_Face ID" transform="translate(0.15 0.15)">
    <path id="Path_8650" data-name="Path 8650" d="M3.28,10.087a.792.792,0,0,0,.78-.78V5.661a1.6,1.6,0,0,1,1.6-1.6H9.286a.78.78,0,1,0,0-1.559H5.661A3.157,3.157,0,0,0,2.5,5.661V9.286A.8.8,0,0,0,3.28,10.087Z" transform="translate(-2.5 -2.5)" stroke="#000" stroke-width="0.3"/>
    <path id="Path_8651" data-name="Path 8651" d="M68.307,61.5a.792.792,0,0,0-.78.78V65.9a1.6,1.6,0,0,1-1.6,1.6H62.28a.78.78,0,1,0,0,1.559H65.9A3.157,3.157,0,0,0,69.065,65.9V62.28A.76.76,0,0,0,68.307,61.5Z" transform="translate(-49.066 -49.066)" stroke="#000" stroke-width="0.3"/>
    <path id="Path_8652" data-name="Path 8652" d="M65.925,2.5H62.28a.78.78,0,1,0,0,1.559H65.9a1.6,1.6,0,0,1,1.6,1.6V9.286a.78.78,0,1,0,1.559,0V5.661A3.126,3.126,0,0,0,65.925,2.5Z" transform="translate(-49.066 -2.5)" stroke="#000" stroke-width="0.3"/>
    <path id="Path_8653" data-name="Path 8653" d="M9.307,67.527H5.661a1.6,1.6,0,0,1-1.6-1.6V62.28a.78.78,0,1,0-1.559,0V65.9a3.157,3.157,0,0,0,3.161,3.161H9.286a.792.792,0,0,0,.78-.78A.755.755,0,0,0,9.307,67.527Z" transform="translate(-2.5 -49.066)" stroke="#000" stroke-width="0.3"/>
    <path id="Path_8654" data-name="Path 8654" d="M41.529,63.9a.77.77,0,0,0-1.1-.021,2.76,2.76,0,0,1-1.728.485,2.712,2.712,0,0,1-1.728-.485A.775.775,0,0,0,35.9,65a4.139,4.139,0,0,0,2.8.906,4.139,4.139,0,0,0,2.8-.906A.789.789,0,0,0,41.529,63.9Z" transform="translate(-28.673 -50.773)" stroke="#000" stroke-width="0.3"/>
    <path id="Path_8655" data-name="Path 8655" d="M25.9,27.98V29.2a.78.78,0,1,0,1.559,0V27.98a.792.792,0,0,0-.78-.78A.778.778,0,0,0,25.9,27.98Z" transform="translate(-20.969 -21.994)" stroke="#000" stroke-width="0.3"/>
    <path id="Path_8656" data-name="Path 8656" d="M68.259,29.2V27.98a.78.78,0,1,0-1.559,0V29.2a.78.78,0,1,0,1.559,0Z" transform="translate(-53.171 -21.994)" stroke="#000" stroke-width="0.3"/>
    <path id="Path_8657" data-name="Path 8657" d="M44.669,39.647a.583.583,0,0,0,.19-.021l1.012-.253a.79.79,0,0,0,.59-.759V35.98a.78.78,0,1,0-1.559,0V38l-.421.105a.779.779,0,0,0-.569.948A.8.8,0,0,0,44.669,39.647Z" transform="translate(-35.165 -28.308)" stroke="#000" stroke-width="0.3"/>
  </g>
</svg>
