<svg xmlns="http://www.w3.org/2000/svg" width="24.527" height="25.025" viewBox="0 0 24.527 25.025">
  <path id="Path_8442" data-name="Path 8442" d="M32.244,13.653H25.453a6.564,6.564,0,0,0,2.541-2.247,2.477,2.477,0,0,0,.31-2.587,1.808,1.808,0,0,0-1.835-.783c-2.47.193-4.648,2.8-5.705,4.3-1.058-1.5-3.235-4.1-5.705-4.3a1.806,1.806,0,0,0-1.835.783,2.477,2.477,0,0,0,.31,2.587,6.564,6.564,0,0,0,2.541,2.247H9.283a.783.783,0,0,0-.783.783v4.54a.783.783,0,0,0,.783.783h.184v12.49a.783.783,0,0,0,.783.783H31.28a.783.783,0,0,0,.783-.783V19.76h.182a.783.783,0,0,0,.783-.783v-4.54a.783.783,0,0,0-.783-.784ZM22.2,15.218v2.975H19.327V15.218Zm9.261,2.975h-7.7V15.218h7.7Zm-4.869-8.6c.043,0,.082,0,.117,0a.566.566,0,0,1,.256.041c.039.068.036.426-.319.977a5.868,5.868,0,0,1-4.43,2.379c1.044-1.416,2.754-3.261,4.375-3.391ZM14.88,10.608c-.355-.552-.357-.91-.324-.972a.518.518,0,0,1,.261-.046,1.031,1.031,0,0,1,.116,0c1.621.128,3.332,1.975,4.375,3.392a5.868,5.868,0,0,1-4.429-2.379Zm-4.815,4.611h7.7v2.975h-7.7Zm.966,4.682h6.732V31.464H11.032Zm8.3,11.565V19.9H22.2V31.464Zm11.168,0H23.765V19.9H30.5Z" transform="translate(-8.5 -8.005)"/>
</svg>
