<svg xmlns="http://www.w3.org/2000/svg" width="31.054" height="31.061" viewBox="0 0 31.054 31.061">
  <g id="Group_11541" data-name="Group 11541" transform="translate(-68.85 -44.23)">
    <path id="Path_8443" data-name="Path 8443" d="M30.563,12.541h0a1.283,1.283,0,0,1,1.28,1.284.64.64,0,0,0,.64.641h0a.641.641,0,0,0,.641-.64A2.561,2.561,0,0,0,31.2,11.349v-.731a.641.641,0,0,0-1.281,0v.732a2.558,2.558,0,0,0,.639,5.034,1.281,1.281,0,0,1,0,2.563h0a1.283,1.283,0,0,1-1.28-1.284.64.64,0,0,0-.64-.641h0a.641.641,0,0,0-.641.64,2.561,2.561,0,0,0,1.925,2.476v.731a.641.641,0,0,0,1.281,0v-.732a2.558,2.558,0,0,0-.639-5.034,1.281,1.281,0,0,1,0-2.563Z" transform="translate(55.097 36.955)" stroke="#000" stroke-width="0.3"/>
    <path id="Path_8444" data-name="Path 8444" d="M6.64,44.791h5.125a.641.641,0,0,0,.641-.641v-.429l6.744,1.926a8.742,8.742,0,0,0,6.92-.614l10.322-5.511c.007,0,.014,0,.021-.008a.644.644,0,0,0,.263-.87l0-.005-.382-.715a3.693,3.693,0,0,0-4.066-1.976l-6.385,1.585a1.918,1.918,0,0,0-1.9-1.71H21.6l-.618-.482a9.012,9.012,0,0,0-5.764-2.063H12.407v-.658a.641.641,0,0,0-.641-.641H6.64A.641.641,0,0,0,6,32.618V44.151A.641.641,0,0,0,6.64,44.791Zm8.574-10.234a7.741,7.741,0,0,1,4.976,1.792l.791.618a.617.617,0,0,0,.091.049.608.608,0,0,0,.075.041.636.636,0,0,0,.228.046h2.563a.641.641,0,1,1,0,1.281H18.173a.641.641,0,1,0,0,1.281h5.766a1.911,1.911,0,0,0,1.479-.709l7.1-1.763a2.423,2.423,0,0,1,2.64,1.334l.083.155L25.468,43.9a7.5,7.5,0,0,1-5.941.52l-7.121-2.034V34.558Zm-7.933-1.3h3.844v9.617a.636.636,0,0,0,0,.088v.546H7.281Z" transform="translate(63 29.05)" stroke="#000" stroke-width="0.3"/>
    <path id="Path_8445" data-name="Path 8445" d="M27.329,5.993a8.329,8.329,0,1,0,8.329,8.329A8.338,8.338,0,0,0,27.329,5.993Zm0,15.376a7.047,7.047,0,1,1,7.047-7.047A7.055,7.055,0,0,1,27.329,21.37Z" transform="translate(58.329 38.387)" stroke="#000" stroke-width="0.3"/>
  </g>
</svg>
