<svg xmlns="http://www.w3.org/2000/svg" width="40" height="40" viewBox="0 0 40 40">
  <g id="Group_11538" data-name="Group 11538" transform="translate(-58.092 64.315)">
    <circle id="Ellipse_1115" data-name="Ellipse 1115" cx="20" cy="20" r="20" transform="translate(58.092 -64.315)" fill="none"/>
    <g id="Path_8447" data-name="Path 8447" transform="translate(43 -76.612)">
      <path d="M 24.93688201904297 39.14976501464844 C 24.92497062683105 39.14976501464844 24.91305160522461 39.14950561523438 24.90112113952637 39.14898300170898 L 24.89788055419922 39.14884567260742 L 24.8946418762207 39.14878463745117 C 24.47856140136719 39.14136505126953 24.09949111938477 38.90808486938477 23.90536117553711 38.54000473022461 C 22.94923210144043 36.75523376464844 22.44623184204102 34.74324417114258 22.44997215270996 32.72008514404297 C 22.44997215270996 29.41651344299316 23.73628234863281 26.31110382080078 26.07193183898926 23.97544479370117 C 28.4075813293457 21.63979339599609 31.51299095153809 20.35349464416504 34.81610107421875 20.35349464416504 L 37.22800064086914 20.35349464416504 L 37.83155059814453 20.35349464416504 L 37.40478134155273 19.92671394348145 L 36.66648101806641 19.18840599060059 C 36.25494003295898 18.73783493041992 36.25529861450195 18.03522491455078 36.66754531860352 17.5850887298584 C 36.8809700012207 17.36717414855957 37.17802810668945 17.24225425720215 37.48311233520508 17.24225425720215 C 37.78939056396484 17.24225425720215 38.08757019042969 17.36814308166504 38.30117034912109 17.58764457702637 L 41.36350250244141 20.69637298583984 L 41.39264297485352 20.7259635925293 L 41.42979049682617 20.74453353881836 C 41.44098663330078 20.75013542175293 41.46101760864258 20.77485656738281 41.47714233398438 20.79565811157227 L 41.47714233398438 20.79923439025879 L 41.47714233398438 20.90278434753418 L 41.55036163330078 20.97601318359375 C 41.55803680419922 20.98369026184082 41.56789779663086 20.99355125427246 41.576171875 21.00221633911133 C 41.58539199829102 21.0490665435791 41.60293960571289 21.08646392822266 41.61611175537109 21.11299514770508 C 41.61898803710938 21.17461585998535 41.63498687744141 21.23501968383789 41.66266250610352 21.28985214233398 L 41.66266250610352 21.68341255187988 C 41.63671493530273 21.72408103942871 41.62187194824219 21.7680778503418 41.61758804321289 21.82760429382324 C 41.60755157470703 21.84772872924805 41.59453582763672 21.87454795837402 41.58463668823242 21.90738105773926 L 41.531494140625 21.98710441589355 L 41.50564956665039 21.98710441589355 L 41.4458122253418 22.15165328979492 C 41.42988204956055 22.19544410705566 41.39951324462891 22.2334041595459 41.36028289794922 22.25856399536133 L 41.33674240112305 22.27365303039551 L 41.31711959838867 22.2935733795166 L 38.25586318969727 25.40122413635254 C 38.0338020324707 25.62165451049805 37.73657989501953 25.74413299560547 37.42092132568359 25.74413299560547 L 37.41481018066406 25.74411392211914 C 37.11564254760742 25.73984718322754 36.83332443237305 25.61952018737793 36.62154769897461 25.40523719787598 C 36.19795989990234 24.93483543395996 36.19683456420898 24.22893333435059 36.61824035644531 23.7573184967041 L 37.35261154174805 23.06884384155273 L 37.81381225585938 22.6364631652832 L 37.18162155151367 22.6364631652832 L 34.81610107421875 22.6364631652832 L 34.81600189208984 23.1364631652832 L 34.81608200073242 22.6364631652832 C 29.25622177124023 22.6364631652832 24.73294067382812 27.15975379943848 24.73294067382812 32.71962356567383 C 24.74334144592285 34.37047576904297 25.15423202514648 36.01401519775391 25.92118072509766 37.47415542602539 C 26.06528091430664 37.73983383178711 26.09403228759766 38.05352401733398 26.00165176391602 38.33776473999023 C 25.90927124023438 38.62200546264648 25.70159149169922 38.85885238647461 25.43186187744141 38.98759460449219 L 25.41433143615723 38.99596405029297 L 25.39830207824707 39.00693511962891 C 25.26183128356934 39.10037231445312 25.10227203369141 39.14976501464844 24.93688201904297 39.14976501464844 Z" stroke="none"/>
      <path d="M 24.93688201904297 38.89976501464844 C 25.05165100097656 38.89976501464844 25.1623706817627 38.86549377441406 25.25705146789551 38.80065536499023 L 25.28911209106445 38.77870559692383 L 25.32418060302734 38.7619743347168 C 25.5323314666748 38.66262435913086 25.69260215759277 38.47984313964844 25.76389122009277 38.26048278808594 C 25.83518218994141 38.04114532470703 25.81299209594727 37.79906463623047 25.70301055908203 37.5963134765625 L 25.70141220092773 37.5933723449707 L 25.69986152648926 37.59041213989258 C 24.91440200805664 36.09504318237305 24.49360084533691 34.41184234619141 24.48294067382812 32.71962356567383 C 24.48294067382812 27.02190399169922 29.11837196350098 22.3864631652832 34.81610107421875 22.3864631652832 L 37.18162155151367 22.3864631652832 L 38.44601058959961 22.3864631652832 L 37.52359008789062 23.25123405456543 L 36.79771041870117 23.9317512512207 C 36.47001266479492 24.30629348754883 36.47187423706055 24.86102867126465 36.80334091186523 25.23349761962891 C 36.96767807006836 25.39774894714355 37.18551254272461 25.49015235900879 37.41806793212891 25.4941234588623 L 37.42092132568359 25.49413299560547 C 37.66960525512695 25.49413299560547 37.90378189086914 25.3978443145752 38.08052825927734 25.22297668457031 L 41.13902282714844 22.11813354492188 L 41.17826080322266 22.07829475402832 L 41.21504592895508 22.0547046661377 L 41.22714233398438 22.02144813537598 L 41.22714233398438 21.99295425415039 L 41.24994277954102 21.95874786376953 L 41.33055114746094 21.73710441589355 L 41.37748718261719 21.73710441589355 C 41.38538360595703 21.69494819641113 41.39729309082031 21.65694999694824 41.41266250610352 21.62188720703125 L 41.41266250610352 21.34213256835938 C 41.39225387573242 21.28970527648926 41.37825393676758 21.23482513427734 41.37113189697266 21.17886352539062 C 41.36521530151367 21.1650218963623 41.35908126831055 21.14947700500488 41.35320663452148 21.13240051269531 L 41.22714233398438 21.00634384155273 L 41.22714233398438 20.91419410705566 L 41.18540191650391 20.87182426452637 L 38.12201309204102 17.76200294494629 C 37.95518112182617 17.59057426452637 37.72231292724609 17.49225425720215 37.48311233520508 17.49225425720215 C 37.24621963500977 17.49225425720215 37.01552200317383 17.58870124816895 36.84904479980469 17.757080078125 C 36.5276985168457 18.11127281188965 36.52717208862305 18.66104125976562 36.84748840332031 19.01586151123047 L 37.58156204223633 19.74994468688965 L 38.43510055541992 20.60349464416504 L 37.22800064086914 20.60349464416504 L 34.81610107421875 20.60349464416504 C 31.57977104187012 20.60349464416504 28.53714179992676 21.86379432678223 26.24871063232422 24.15222358703613 C 23.96027183532715 26.44066429138184 22.69997215270996 29.48328399658203 22.69997215270996 32.72054290771484 C 22.6963005065918 34.70249557495117 23.18906211853027 36.67350387573242 24.12649154663086 38.42337417602539 C 24.27810096740723 38.71084213256836 24.57415199279785 38.89302444458008 24.89910125732422 38.89882278442383 L 24.90554046630859 38.89893341064453 L 24.9119815826416 38.89922332763672 C 24.92029190063477 38.89958572387695 24.92859077453613 38.89976501464844 24.93688201904297 38.89976501464844 M 24.9368782043457 39.39976501464844 C 24.92133331298828 39.39976501464844 24.90576362609863 39.3994255065918 24.89018058776855 39.39874267578125 C 24.38297080993652 39.38969421386719 23.9208812713623 39.1053352355957 23.68423080444336 38.65662384033203 C 22.70611190795898 36.8308219909668 22.19614219665527 34.79091262817383 22.19997215270996 32.71962356567383 L 22.19997215270996 32.71961212158203 C 22.19998168945312 25.75192451477051 27.84841156005859 20.10349464416504 34.81610107421875 20.10349464416504 L 37.22800064086914 20.10349464416504 L 36.48588180541992 19.36136436462402 C 35.97898101806641 18.81093406677246 35.97898101806641 17.96372413635254 36.48588180541992 17.41329383850098 C 36.74784088134766 17.14410400390625 37.10749053955078 16.99225425720215 37.48311233520508 16.99225425720215 C 37.85872268676758 16.99225425720215 38.21837997436523 17.14410400390625 38.48034286499023 17.41329383850098 L 41.54160308837891 20.52093315124512 C 41.63437271118164 20.56732368469238 41.68075180053711 20.66008377075195 41.72714233398438 20.70647430419922 L 41.72714233398438 20.79923439025879 C 41.77352142333984 20.84561347961426 41.81990051269531 20.89200401306152 41.81990051269531 20.93838310241699 C 41.81990051269531 20.98476409912109 41.86627960205078 21.03115463256836 41.86627960205078 21.07753372192383 C 41.86197280883789 21.1283130645752 41.87874221801758 21.17863464355469 41.91266250610352 21.21668434143066 L 41.91266250610352 21.77327346801758 C 41.86627960205078 21.81965446472168 41.86627960205078 21.81965446472168 41.86627960205078 21.86604309082031 C 41.86627960205078 21.91242408752441 41.81990051269531 21.95880317687988 41.81990051269531 22.00518417358398 L 41.72714233398438 22.14433479309082 C 41.72714233398438 22.19071388244629 41.72714233398438 22.23710441589355 41.68075180053711 22.23710441589355 C 41.64599990844727 22.3326530456543 41.580810546875 22.41413307189941 41.49522018432617 22.46901321411133 L 38.4339599609375 25.57666397094727 C 38.16452789306641 25.84414863586426 37.80037689208984 25.99413299560547 37.42091751098633 25.99413299560547 C 37.4184684753418 25.99413299560547 37.41598129272461 25.99412727355957 37.41353225708008 25.99411392211914 C 37.04650115966797 25.98888397216797 36.6964111328125 25.83884429931641 36.43950271606445 25.57666397094727 C 35.92626953125 25.01089477539062 35.92626953125 24.14797401428223 36.43950271606445 23.58220481872559 L 37.18162155151367 22.8864631652832 L 34.81610107421875 22.8864631652832 C 34.81576919555664 22.8864631652832 34.81641387939453 22.8864631652832 34.81608200073242 22.8864631652832 C 29.38583946228027 22.8864631652832 24.98294067382812 27.28924560546875 24.98294067382812 32.71962356567383 C 24.99313163757324 34.33618545532227 25.39077186584473 35.92673492431641 26.14251136779785 37.35790252685547 C 26.3183708190918 37.68209457397461 26.3534107208252 38.06427383422852 26.23941230773926 38.41503524780273 C 26.12541198730469 38.76579284667969 25.87239074707031 39.05435562133789 25.53954124450684 39.21321487426758 C 25.36176109313965 39.33494186401367 25.15160942077637 39.39976501464844 24.9368782043457 39.39976501464844 Z" stroke="none" fill="#f7f7f7"/>
    </g>
    <g id="Path_8448" data-name="Path 8448" transform="translate(35.923 -86.011)">
      <path d="M 39.84919357299805 56.75733184814453 L 39.84533309936523 56.75732421875 C 39.52969360351562 56.75732421875 39.23249053955078 56.63484191894531 39.00846099853516 56.41244506835938 L 35.94916152954102 53.3067741394043 L 35.78493499755859 53.14252853393555 L 35.78300094604492 53.11902236938477 L 35.74716186523438 53.06525421142578 L 35.69638061523438 52.98907852172852 L 35.69638061523438 52.92561340332031 C 35.69638061523438 52.84798431396484 35.66870498657227 52.78829574584961 35.65000152587891 52.75065612792969 L 35.65000152587891 52.29892730712891 C 35.67417144775391 52.26076126098633 35.69638061523438 52.20721817016602 35.69638061523438 52.13710403442383 L 35.69638061523438 52.07735443115234 C 35.71149444580078 52.06077575683594 35.72820281982422 52.04037094116211 35.74322509765625 52.01605224609375 L 35.76064300537109 52.01605224609375 L 35.82048034667969 51.85149383544922 C 35.83640289306641 51.80770492553711 35.86677169799805 51.76974487304688 35.90600204467773 51.74458312988281 L 35.92954254150391 51.7294921875 L 35.94916152954102 51.70957183837891 L 39.01043319702148 48.60192489624023 C 39.22510147094727 48.38133239746094 39.52328109741211 48.25544357299805 39.82956314086914 48.25544357299805 C 40.13434600830078 48.25544357299805 40.43112945556641 48.380126953125 40.64450454711914 48.5976448059082 C 41.06830978393555 49.06804656982422 41.06953048706055 49.77413177490234 40.64805603027344 50.24582290649414 L 39.91368103027344 50.93429183959961 L 39.45246124267578 51.36668395996094 L 40.08466339111328 51.36668395996094 L 42.45019149780273 51.36668395996094 L 42.51051330566406 51.36687469482422 C 44.24727249145508 51.36685180664062 45.96330261230469 50.91287231445312 47.47307205200195 50.05400466918945 C 48.98337173461914 49.19484329223633 50.25085067749023 47.951171875 51.13850021362305 46.45744323730469 C 52.03149032592773 44.9547119140625 52.51811218261719 43.23655319213867 52.54574203491211 41.48872375488281 C 52.57334136962891 39.7420768737793 52.14189910888672 38.01059722900391 51.29796981811523 36.48113250732422 C 51.01059341430664 35.918701171875 51.21285247802734 35.23068237304688 51.75948333740234 34.91339492797852 C 51.92480087280273 34.82148361206055 52.11668014526367 34.77171325683594 52.3104133605957 34.77171325683594 C 52.41895294189453 34.77171325683594 52.52681350708008 34.78717422485352 52.63101196289062 34.81767272949219 C 52.9222412109375 34.90291213989258 53.1717414855957 35.10504150390625 53.3155403137207 35.37224197387695 C 54.33917999267578 37.2535514831543 54.85842132568359 39.37870407104492 54.81766128540039 41.51894378662109 C 54.77691268920898 43.65918350219727 54.17715072631836 45.76302337646484 53.08322143554688 47.60302352905273 C 51.98955154418945 49.44258499145508 50.42829132080078 50.97421264648438 48.56822204589844 52.03233337402344 C 46.70825576782227 53.09038925170898 44.59401321411133 53.64966201782227 42.45412445068359 53.64966201782227 C 42.45399475097656 53.64966201782227 42.45391082763672 53.64966201782227 42.45378112792969 53.64966201782227 L 40.08466339111328 53.64966201782227 L 39.48110198974609 53.64966201782227 L 39.90788269042969 54.07644271850586 L 40.64629364013672 54.81484603881836 C 41.05755996704102 55.26529312133789 41.05731582641602 55.96756744384766 40.6454963684082 56.41766357421875 C 40.43362426757812 56.63245010375977 40.15099716186523 56.75303268432617 39.84919357299805 56.75733184814453 Z" stroke="none"/>
      <path d="M 52.31035232543945 35.02171325683594 C 52.16057586669922 35.02171325683594 52.01221466064453 35.059814453125 51.88096618652344 35.1319465637207 C 51.45336532592773 35.3829460144043 51.29509735107422 35.92229080200195 51.51909637451172 36.36442947387695 C 52.38259506225586 37.93098831176758 52.82397842407227 39.70404815673828 52.79571151733398 41.49268341064453 C 52.76739120483398 43.28404235839844 52.26865005493164 45.04499435424805 51.35341262817383 46.58516311645508 C 50.44366073608398 48.11609268188477 49.14459991455078 49.39075469970703 47.5966911315918 50.27132415771484 C 46.04930114746094 51.15158462524414 44.29052352905273 51.61687469482422 42.51050186157227 51.61687469482422 L 42.45019149780273 51.61668395996094 L 40.08466339111328 51.61668395996094 L 38.82026290893555 51.61668395996094 L 39.74269104003906 50.75191497802734 L 40.46858596801758 50.07139587402344 C 40.79645156860352 49.69665145874023 40.79438781738281 49.14148712158203 40.46237564086914 48.76900482177734 C 40.29599380493164 48.60139465332031 40.06587219238281 48.50544357299805 39.82956314086914 48.50544357299805 C 39.59036254882812 48.50544357299805 39.35749053955078 48.60376358032227 39.18852996826172 48.77737426757812 L 36.12726211547852 51.88502502441406 L 36.08802032470703 51.92485427856445 L 36.05123519897461 51.94844055175781 L 35.93572998046875 52.26604461669922 L 35.93131256103516 52.26604461669922 C 35.92418670654297 52.29592514038086 35.91405868530273 52.32719802856445 35.90000152587891 52.35910034179688 L 35.90000152587891 52.69675827026367 C 35.92157363891602 52.74981307983398 35.94427490234375 52.82424545288086 35.94624328613281 52.91316986083984 L 35.95517349243164 52.92656326293945 L 36.02047348022461 53.02452850341797 L 36.12726211547852 53.13132476806641 L 39.18576812744141 56.23617553710938 C 39.36249923706055 56.41104507446289 39.5966682434082 56.50732421875 39.84533309936523 56.50732421875 L 39.84822082519531 56.5073127746582 C 40.08135604858398 56.50333023071289 40.29972457885742 56.41045379638672 40.46420288085938 56.24544525146484 C 40.78505325317383 55.89118957519531 40.78535079956055 55.34180450439453 40.46509170532227 54.98718643188477 L 39.73111343383789 54.25320434570312 L 38.8775520324707 53.39965438842773 L 40.08466339111328 53.39965438842773 L 42.45381164550781 53.39965438842773 C 44.55059051513672 53.39965438842773 46.6221809387207 52.8516845703125 48.44462203979492 51.81498336791992 C 50.26709365844727 50.77826309204102 51.79679107666016 49.27761459350586 52.86833190917969 47.47526168823242 C 53.94015121459961 45.67246246337891 54.52778244018555 43.61115264892578 54.56771087646484 41.51418304443359 C 54.60764312744141 39.41721343994141 54.09890365600586 37.33502197265625 53.09539031982422 35.49071502685547 C 52.98309326171875 35.28204345703125 52.78823089599609 35.12418365478516 52.56078338623047 35.05760192871094 C 52.47941207885742 35.03379440307617 52.3951530456543 35.02171325683594 52.31035232543945 35.02171325683594 M 52.3104133605957 34.52171325683594 C 52.44150924682617 34.5217170715332 52.57312774658203 34.54024505615234 52.70124053955078 34.57774353027344 C 53.05865097045898 34.68235397338867 53.35920333862305 34.92584228515625 53.53568267822266 35.25376510620117 C 55.66300201416016 39.16348266601562 55.57272338867188 43.90487289428711 53.29811096191406 47.73078155517578 C 51.02405548095703 51.55575942993164 46.90356063842773 53.89965438842773 42.45380783081055 53.89965438842773 C 42.45272064208984 53.89965438842773 42.45127868652344 53.89965438842773 42.45019149780273 53.89965438842773 L 40.08466339111328 53.89965438842773 L 40.8267936706543 54.64178466796875 C 41.33369064331055 55.19222259521484 41.33369064331055 56.03943252563477 40.8267936706543 56.58986282348633 C 40.56988143920898 56.85203170776367 40.21977996826172 57.00208282470703 39.85275268554688 57.00730514526367 C 39.85025787353516 57.00731658935547 39.84782409667969 57.00732421875 39.84532928466797 57.00732421875 C 39.4659309387207 57.00732421875 39.10172271728516 56.85730361938477 38.83233261108398 56.58986282348633 L 35.77106094360352 53.48220443725586 L 35.58553314208984 53.29668426513672 C 35.55869293212891 53.27289199829102 35.54207992553711 53.23966217041016 35.53914260864258 53.20391464233398 L 35.44638061523438 53.06477355957031 L 35.44638061523438 52.92561340332031 C 35.44638061523438 52.87922286987305 35.40000152587891 52.83284378051758 35.40000152587891 52.78646469116211 L 35.40000152587891 52.22987365722656 C 35.40000152587891 52.18349456787109 35.44638061523438 52.18349456787109 35.44638061523438 52.13710403442383 L 35.44638061523438 51.99796295166016 C 35.44638061523438 51.95157241821289 35.53914260864258 51.90519332885742 35.53914260864258 51.85881423950195 C 35.53914260864258 51.81242370605469 35.53914260864258 51.76604461669922 35.58553314208984 51.76604461669922 C 35.62028121948242 51.67049407958984 35.68547058105469 51.58901214599609 35.77106094360352 51.53413391113281 L 38.83233261108398 48.42648315429688 C 39.09429168701172 48.15729141235352 39.45394134521484 48.00544357299805 39.82956314086914 48.00544357299805 C 40.20517349243164 48.00544357299805 40.5648307800293 48.15729141235352 40.8267936706543 48.42648315429688 C 41.34001159667969 48.99226379394531 41.34001159667969 49.85517501831055 40.8267936706543 50.42094421386719 L 40.08466339111328 51.11668395996094 L 42.45019149780273 51.11668395996094 C 42.47033309936523 51.11680603027344 42.49037933349609 51.11686706542969 42.51050567626953 51.11686706542969 C 45.96133041381836 51.11686706542969 49.1591911315918 49.29884719848633 50.92358016967773 46.32973480224609 C 52.69826126098633 43.34330368041992 52.75680160522461 39.6399040222168 51.077392578125 36.59886169433594 C 50.72682189941406 35.91790390014648 50.97157287597656 35.0816650390625 51.63398361206055 34.69717407226562 C 51.84276580810547 34.5810432434082 52.07579040527344 34.52170562744141 52.3104133605957 34.52171325683594 Z" stroke="none" fill="#f7f7f7"/>
    </g>
  </g>
</svg>
