<svg xmlns="http://www.w3.org/2000/svg" width="20.752" height="18.125" viewBox="0 0 20.752 18.125">
  <g id="icon_Swap" transform="translate(-0.594 -7.766)">
    <path d="M 7.69295597076416 25.84126853942871 C 5.397585868835449 25.84126853942871 3.530166149139404 23.97384834289551 3.530166149139404 21.67848777770996 L 3.530166149139404 17.82154655456543 L 1.955366015434265 19.39833831787109 L 1.92003607749939 19.43370819091797 L 1.884666085243225 19.39839744567871 L 0.6997160911560059 18.21554756164551 L 0.6643260717391968 18.18021774291992 L 0.6996460556983948 18.14482688903809 L 4.382205963134766 14.45598793029785 L 4.417625904083252 14.42051792144775 L 4.45301628112793 14.45601749420166 L 8.137665748596191 18.15322685241699 L 8.17292594909668 18.18861770629883 L 8.137565612792969 18.22391700744629 L 6.952616214752197 19.40677833557129 L 6.917245864868164 19.44208717346191 L 6.881916046142578 19.40671730041504 L 5.30500602722168 17.82783508300781 L 5.30500602722168 21.68475723266602 C 5.305016040802002 23.00147819519043 6.376245975494385 24.07270812988281 7.69295597076416 24.07270812988281 C 9.009666442871094 24.07270812988281 10.08089637756348 23.00147819519043 10.08089637756348 21.68475723266602 L 10.08089637756348 11.97904777526855 C 10.08089637756348 9.683688163757324 11.94831562042236 7.816267967224121 14.24367618560791 7.816267967224121 C 16.5390453338623 7.816267967224121 18.40646553039551 9.683688163757324 18.40646553039551 11.97904777526855 L 18.40646553039551 15.83598041534424 L 19.98336601257324 14.25709819793701 L 20.01869583129883 14.22172737121582 L 20.0540657043457 14.25703811645508 L 21.23901557922363 15.43989753723145 L 21.27441596984863 15.47523784637451 L 21.23907661437988 15.51062774658203 L 17.5544261932373 19.1994686126709 L 17.51904678344727 19.23487854003906 L 17.48366546630859 19.1994686126709 L 13.79901599884033 15.51062774658203 L 13.76367568969727 15.47523784637451 L 13.79907608032227 15.43989753723145 L 14.9840259552002 14.25703811645508 L 15.01939582824707 14.22172737121582 L 15.05472564697266 14.25709819793701 L 16.63162612915039 15.8359899520874 L 16.63162612915039 11.97904777526855 C 16.63162612915039 10.66233730316162 15.56039619445801 9.591107368469238 14.24368572235107 9.591107368469238 C 12.92697620391846 9.591107368469238 11.85574626922607 10.66233730316162 11.85573577880859 11.97904777526855 L 11.85573577880859 21.67848777770996 C 11.85573577880859 23.97384834289551 9.988316535949707 25.84126853942871 7.69295597076416 25.84126853942871 Z" stroke="none"/>
    <path d="M 7.69295597076416 25.79126739501953 C 9.964385986328125 25.79126739501953 11.80573654174805 23.94990730285645 11.80573654174805 21.67848777770996 L 11.80573654174805 11.97904777526855 C 11.80574607849121 10.63261795043945 12.89724636077881 9.541108131408691 14.24368572235107 9.541108131408691 C 15.59012603759766 9.541108131408691 16.68162536621094 10.63261795043945 16.68162536621094 11.97904777526855 L 16.68162536621094 15.95680809020996 L 15.01934623718262 14.2924280166626 L 13.83439636230469 15.47528743743896 L 17.51904678344727 19.16412734985352 L 21.20369529724121 15.47528743743896 L 20.01874542236328 14.2924280166626 L 18.35646629333496 15.95679759979248 L 18.35646629333496 11.97904777526855 C 18.35646629333496 9.70762825012207 16.51510620117188 7.866267681121826 14.24367618560791 7.866267681121826 C 11.97225570678711 7.866267681121826 10.13089561462402 9.70762825012207 10.13089561462402 11.97904777526855 L 10.13089561462402 21.68475723266602 C 10.13089561462402 23.03120803833008 9.039385795593262 24.12270736694336 7.69295597076416 24.12270736694336 C 6.346516132354736 24.12270736694336 5.255015850067139 23.03120803833008 5.255005836486816 21.68475723266602 L 5.255005836486816 17.70701789855957 L 6.917295932769775 19.37138748168945 L 8.102246284484863 18.18852806091309 L 4.417595863342285 14.49131774902344 L 0.7350360751152039 18.1801586151123 L 1.919986128807068 19.36300849914551 L 3.580166101455688 17.70072746276855 L 3.580166101455688 21.67848777770996 C 3.580166101455688 23.94990730285645 5.421525955200195 25.79126739501953 7.69295597076416 25.79126739501953 M 7.69295597076416 25.89126777648926 C 5.370016098022461 25.89126777648926 3.480165958404541 24.00141716003418 3.480165958404541 21.67848777770996 L 3.480165958404541 17.94237327575684 L 1.990746021270752 19.43367767333984 L 1.920096039772034 19.50440788269043 L 1.84933602809906 19.43377685546875 L 0.6643860936164856 18.25092697143555 L 0.5936160683631897 18.18027687072754 L 0.664266049861908 18.1095085144043 L 4.346826076507568 14.42066764831543 L 4.417655944824219 14.34971809387207 L 4.488426208496094 14.42072772979736 L 8.173075675964355 18.1179370880127 L 8.243605613708496 18.18870735168457 L 8.172896385192871 18.25929832458496 L 6.987946033477783 19.44215774536133 L 6.917186260223389 19.51278686523438 L 6.846546173095703 19.44205856323242 L 5.355006217956543 17.94865226745605 L 5.355006217956543 21.68475723266602 C 5.355016231536865 22.97390747070312 6.403816223144531 24.02270698547363 7.69295597076416 24.02270698547363 C 8.982095718383789 24.02270698547363 10.03089618682861 22.97390747070312 10.03089618682861 21.68475723266602 L 10.03089618682861 11.97904777526855 C 10.03089618682861 9.65611743927002 11.92074584960938 7.766267776489258 14.24367618560791 7.766267776489258 C 16.56661605834961 7.766267776489258 18.45646667480469 9.65611743927002 18.45646667480469 11.97904777526855 L 18.45646667480469 15.71515274047852 L 19.9479866027832 14.22175788879395 L 20.01863670349121 14.15102767944336 L 20.08939552307129 14.22165775299072 L 21.27434539794922 15.40451812744141 L 21.34513664245605 15.47518730163574 L 21.27444648742676 15.54595756530762 L 17.58979606628418 19.23479843139648 L 17.51904678344727 19.30562782287598 L 17.44829559326172 19.23479843139648 L 13.76364612579346 15.54595756530762 L 13.69295597076416 15.47518730163574 L 13.76374626159668 15.40451812744141 L 14.94869613647461 14.22165775299072 L 15.019455909729 14.15102767944336 L 15.09010601043701 14.22175788879395 L 16.58162689208984 15.71516227722168 L 16.58162689208984 11.97904777526855 C 16.58162689208984 10.68990802764893 15.53282642364502 9.641107559204102 14.24368572235107 9.641107559204102 C 12.95454597473145 9.641107559204102 11.90574645996094 10.68990802764893 11.90573596954346 11.97904777526855 L 11.90573596954346 21.67848777770996 C 11.90573596954346 24.00141716003418 10.0158863067627 25.89126777648926 7.69295597076416 25.89126777648926 Z" stroke="none" fill="#000"/>
  </g>
</svg>
