<svg xmlns="http://www.w3.org/2000/svg" width="26" height="26" viewBox="0 0 26 26">
  <path id="icon_Thumbprint_ID" data-name="icon_Thumbprint ID" d="M19.307,958.362a12.711,12.711,0,0,0-10.691,5.817.887.887,0,1,0,1.494.956,10.956,10.956,0,0,1,16.309-2.389.884.884,0,1,0,1.153-1.333,12.671,12.671,0,0,0-8.265-3.051Zm0,3.354a.882.882,0,1,0,0,1.764,7.524,7.524,0,0,1,7.546,7.526.478.478,0,0,0,0,.092,24.235,24.235,0,0,1-.747,5.881.889.889,0,0,0,1.725.432,25.985,25.985,0,0,0,.793-6.341v-.064c0-.028,0-.054,0-.083,0,0,0-.006,0-.009A9.322,9.322,0,0,0,19.307,961.716Zm-3.173.616a.914.914,0,0,0-.129.009.9.9,0,0,0-.231.064,9.306,9.306,0,0,0-5.793,8.5.577.577,0,0,0,0,.1.478.478,0,0,0,0,.092,7.466,7.466,0,0,1-2.315,5.33A.884.884,0,1,0,8.892,977.7a9.237,9.237,0,0,0,2.86-6.626v-.147a7.529,7.529,0,0,1,4.7-6.883.882.882,0,0,0-.314-1.709Zm13.053,1.342a.882.882,0,0,0-.738,1.378,10.8,10.8,0,0,1,1.78,5.9c0,.019,0,.036,0,.055a.478.478,0,0,0,0,.092,27.693,27.693,0,0,1-.553,5.4.889.889,0,1,0,1.743.349A29.448,29.448,0,0,0,32,971.08s0-.006,0-.009v-.064c0-.028,0-.055,0-.083,0,0,0-.006,0-.009a12.573,12.573,0,0,0-2.066-6.828A.9.9,0,0,0,29.186,963.674Zm-9.879,1.406a5.957,5.957,0,0,0-5.95,5.835.477.477,0,0,0,0,.092.479.479,0,0,0,0,.092,10.816,10.816,0,0,1-.434,2.959.885.885,0,1,0,1.7.5,12.607,12.607,0,0,0,.507-3.483v-.147a4.176,4.176,0,0,1,7.684-2.169.889.889,0,1,0,1.494-.965,5.953,5.953,0,0,0-5-2.711ZM7.97,966.734a.91.91,0,0,0-.83.643,12.6,12.6,0,0,0-.526,3.565s0,.006,0,.009c0,.019,0,.037,0,.055a.478.478,0,0,0,0,.092,4.1,4.1,0,0,1-.489,1.856.885.885,0,1,0,1.559.827,5.872,5.872,0,0,0,.7-2.711v-.147a10.829,10.829,0,0,1,.452-3.042A.927.927,0,0,0,7.97,966.734Zm11.337,1.709a2.583,2.583,0,0,0-2.574,2.564.886.886,0,1,0,1.771,0,.8.8,0,0,1,1.605,0,.478.478,0,0,0,0,.092,17.5,17.5,0,0,1-1.125,6.093.885.885,0,0,0,1.66.616,19.245,19.245,0,0,0,1.236-6.736v-.147c0-.006,0-.012,0-.019a2.588,2.588,0,0,0-2.574-2.463Zm5.046,1.663a.919.919,0,0,0-.876.9,20.774,20.774,0,0,1-3.782,11.983.915.915,0,0,0,.22,1.234A.95.95,0,0,0,21.152,984a22.549,22.549,0,0,0,4.1-12.994.92.92,0,0,0-.895-.9Zm-6.974,2.417a.913.913,0,0,0-.83.754,14.18,14.18,0,0,1-4.169,7.958.884.884,0,1,0,1.227,1.268,15.944,15.944,0,0,0,4.7-8.942.925.925,0,0,0-.922-1.038Zm-4.871,3.639a.9.9,0,0,0-.7.441,10.923,10.923,0,0,1-2.122,2.536.884.884,0,1,0,1.172,1.323,12.7,12.7,0,0,0,2.463-2.95.882.882,0,0,0-.812-1.351Zm13.652,2.582a.907.907,0,0,0-.775.588,24.153,24.153,0,0,1-1.042,2.435.885.885,0,1,0,1.587.781,25.846,25.846,0,0,0,1.116-2.61.883.883,0,0,0-.886-1.195Zm-7.85.845a.9.9,0,0,0-.7.441,17.645,17.645,0,0,1-1.928,2.619.884.884,0,1,0,1.328,1.167,19.476,19.476,0,0,0,2.122-2.886.881.881,0,0,0-.82-1.341Z" transform="translate(-6 -958.362)"/>
</svg>
